# xmcd CD database file
#
# Track frame offsets:
#	150
#	14329
#	30418
#	45215
#	61408
#	72741
#	83765
#	99864
#	115549
#	132170
#	143960
#	160285
#	171151
#	184385
#	196506
#	210025
#	224811
#	235401
#	249385
#	261686
#
# Disc length: 3720 seconds
#
# Revision: 0
# Processed by: cddbd v1.5.1PL2 Copyright (c) Steve Scherf et al.
# Submitted via: CDex 1.51
#
DISCID=180e8614
DTITLE=Almir Sater - Dose Dupla
DYEAR=1996
DGENRE=Country
TTITLE0=Rasta Bonito
TTITLE1=Tristeza Do Jeca
TTITLE2=Capim Azul
TTITLE3=Um Violeiro Toca
TTITLE4=Hopmeless Souls
TTITLE5=Tennessee Waltz
TTITLE6=Canoa
TTITLE7=Indio Adeus
TTITLE8=Boiada
TTITLE9=Cruzada
TTITLE10=Estradeiro
TTITLE11=Canta Viola
TTITLE12=Semente
TTITLE13=O Carrapicho E A Pimenta
TTITLE14=Flor Do Amor
TTITLE15=Aqui Agora Crianças
TTITLE16=Velhos Amigos
TTITLE17=Luz Da Fé
TTITLE18=Bicho Preguiça
TTITLE19=No Quintal De Casa
EXTD=YEAR: 1996
EXTT0=
EXTT1=
EXTT2=
EXTT3=
EXTT4=
EXTT5=
EXTT6=
EXTT7=
EXTT8=
EXTT9=
EXTT10=
EXTT11=
EXTT12=
EXTT13=
EXTT14=
EXTT15=
EXTT16=
EXTT17=
EXTT18=
EXTT19=
PLAYORDER=
